<svg width="100" height="100" viewBox="0 0 100 100" fill="none" xmlns="http://www.w3.org/2000/svg">
<g clip-path="url(#clip0_9_2)">
<rect width="100" height="100" fill="#2E2AEB"/>
<path d="M26.528 83V15.8H51.392C56.768 15.8 61.216 16.696 64.736 18.488C68.256 20.28 70.88 22.744 72.608 25.88C74.336 29.016 75.2 32.536 75.2 36.44C75.2 40.152 74.368 43.576 72.704 46.712C71.04 49.784 68.448 52.28 64.928 54.2C61.408 56.056 56.896 56.984 51.392 56.984H38.816V83H26.528ZM38.816 47H50.624C54.912 47 57.984 46.072 59.84 44.216C61.76 42.296 62.72 39.704 62.72 36.44C62.72 33.112 61.76 30.52 59.84 28.664C57.984 26.744 54.912 25.784 50.624 25.784H38.816V47Z" fill="#FFDE56"/>
</g>
<defs>
<clipPath id="clip0_9_2">
<rect width="100" height="100" fill="white"/>
</clipPath>
</defs>
</svg>
